<svg xmlns="http://www.w3.org/2000/svg" xmlns:xlink="http://www.w3.org/1999/xlink" version="1.1" viewBox="-66 0 569 569.286" class="cursor svg-icon svg-fill" style="width: 24px; height: 24px;"><path pid="0" d="M.11 66.383v493.133A9.484 9.484 0 009.593 569H369.96c5.234 0 9.48-4.246 9.48-9.484V161.219c0-.211-.101-.39-.12-.598a8.942 8.942 0 00-.485-2.437c-.106-.305-.18-.598-.313-.895a9.387 9.387 0 00-1.898-2.777L281.793 59.68a9.198 9.198 0 00-2.79-1.899 8.56 8.56 0 00-.87-.312 9.399 9.399 0 00-2.457-.492c-.16.027-.348-.075-.547-.075H9.594c-5.239 0-9.485 4.243-9.485 9.48zm346.956 85.351H284.61V89.277zM19.074 75.867h246.57v85.352c0 5.234 4.247 9.48 9.481 9.48h85.352v379.336H19.074zm0 0"></path><path pid="1" d="M398.41 493.133v18.965h28.45c5.238 0 9.484-4.243 9.484-9.48V9.483A9.484 9.484 0 00426.859 0H66.492a9.484 9.484 0 00-9.484 9.484v28.45h18.969v-18.97h341.398v474.169zm0 0"></path><path pid="2" d="M75.977 189.668h227.597v18.965H75.977zm0 0M75.977 132.766h75.867v18.968H75.977zm0 0M75.977 246.566H227.71v18.97H75.977zm0 0M246.676 246.566h56.898v18.97h-56.898zm0 0M75.977 303.465h227.597v18.969H75.977zm0 0M75.977 417.266h227.597v18.968H75.977zm0 0M161.324 360.367h142.25v18.965h-142.25zm0 0M75.977 360.367h66.382v18.965H75.977zm0 0M75.977 474.168h37.933v18.965H75.977zm0 0M132.875 474.168h170.7v18.965h-170.7zm0 0"></path></svg>
