<svg xmlns="http://www.w3.org/2000/svg" xmlns:xlink="http://www.w3.org/1999/xlink" version="1.1" viewBox="0 0 24 24" class="svg-icon svg-fill" style="width: 24px; height: 24px;"><g fill="none" fill-rule="evenodd"><circle pid="0" cx="12" cy="12" r="12" fill="#000" fill-opacity=".2"></circle><path pid="1" fill="#FFF" d="M7 17V8a1 1 0 011-1h8a1 1 0 011 1v9M8 7V6a1 1 0 011-1h6a1 1 0 011 1v1m-6 1a1 1 0 110 2 1 1 0 110-2zm4 0a1 1 0 110 2 1 1 0 110-2zm-4 3a1 1 0 110 2 1 1 0 110-2zm4 0a1 1 0 110 2 1 1 0 110-2zm-4 3a1 1 0 010 2 1 1 0 110-2zm4 0a1 1 0 110 2 1 1 0 010-2zm-7 3h10a1 1 0 011 1v1H6v-1a1 1 0 011-1z"></path></g></svg>